<svg width="176" height="228" viewBox="0 0 176 228" fill="none" xmlns="http://www.w3.org/2000/svg">
<g clip-path="url(#clip0_1_2)">
<rect width="176" height="228" fill="white"/>
<path fill-rule="evenodd" clip-rule="evenodd" d="M167.181 6.2524C167.181 6.2524 176.807 5.2455 174.158 28.3926C171.507 51.538 165.349 78.099 176 91L100.733 83.562C100.733 83.562 95.686 48.1819 100.119 28.7714C105.884 3.529 94 3 94 3L167.181 6.2524Z" fill="#D0C5BA"/>
<path fill-rule="evenodd" clip-rule="evenodd" d="M151.756 116.999L71.156 114.056C70.512 114.034 70 113.522 70 112.898V109.161C70 108.502 70.567 107.976 71.246 108.001L151.846 110.944C152.49 110.966 153 111.478 153 112.102V115.841C153 116.498 152.435 117.024 151.756 116.999Z" fill="#EABD91"/>
<path fill-rule="evenodd" clip-rule="evenodd" d="M121.464 213C121.331 213 121.195 212.989 121.059 212.967C119.718 212.753 118.811 211.52 119.034 210.217L123.332 184.96L126.079 112.305C126.128 110.985 127.303 109.943 128.627 110.002C129.986 110.05 131.048 111.162 130.998 112.481L128.212 185.591L123.889 210.999C123.689 212.169 122.647 213 121.464 213Z" fill="#EABD91"/>
<path fill-rule="evenodd" clip-rule="evenodd" d="M138.991 218C138.231 218 137.502 217.574 137.163 216.852L123.949 188.708L103.626 215.688C102.967 216.562 101.708 216.748 100.815 216.103C99.923 215.454 99.733 214.221 100.394 213.344L124.756 181L140.816 215.205C141.279 216.193 140.838 217.364 139.829 217.82C139.559 217.942 139.272 218 138.991 218Z" fill="#EABD91"/>
<path fill-rule="evenodd" clip-rule="evenodd" d="M91.79 12L74 108.124L149.125 112L167 14.5813L91.79 12Z" fill="#FFF6ED"/>
<path fill-rule="evenodd" clip-rule="evenodd" d="M166.971 16L92 13.7099L92.029 13L167 15.2901L166.971 16Z" fill="#9C9B9A"/>
<path fill-rule="evenodd" clip-rule="evenodd" d="M168 6.2953C168 6.2953 161.679 10.5979 166.598 16L91.996 13.388C91.996 13.388 88.356 7.4872 94.993 3L168 6.2953Z" fill="#FFF6ED"/>
<path fill-rule="evenodd" clip-rule="evenodd" d="M38.6109 180.464C38.9031 188.212 37.1496 199.834 34.8849 201.346C34.8849 201.346 31.9056 179.588 32.1252 177.037C32.344 174.486 32.0973 169.573 32.0973 169.573C32.0973 169.573 36.4348 158.045 37.3116 151.526L41.3865 159.582C41.3865 159.582 38.3186 172.716 38.6109 180.464ZM54.7318 161.809C56.3392 157.651 56.0833 155.195 56.0833 155.195C53.1978 123.542 44.6741 101.094 44.6741 101.094C44.6741 101.094 41.7523 94.291 35.1037 94.291C28.456 94.291 28.8944 101.756 28.8944 101.756C27.0682 104.59 21.0405 111.299 18.4473 122.543C16.1687 132.422 20.6021 157.787 20.7119 160.838C20.8217 163.89 21.2052 183.086 25.0409 192.653C28.8758 202.22 29.99 211.361 30.2096 213.818C30.4284 216.276 29.0405 220.102 29.8802 220.858C30.7206 221.613 35.2135 225.96 35.8715 226.196C36.5287 226.433 40.7293 227.235 41.7886 227.377C42.8478 227.52 42.8115 225.772 41.862 225.063C40.9118 224.354 39.3044 223.456 38.3913 220.811C37.4782 218.165 36.6014 213.582 36.054 212.024C35.5058 210.464 34.9576 206.968 34.9576 206.968C35.8344 207.724 39.0492 215.708 39.0129 216.228C38.9758 216.747 46.0627 217.739 46.0627 217.739C46.3178 215.803 42.5556 213.96 42.5556 213.96C42.8115 211.598 41.2404 203.52 41.2404 203.52C41.2404 203.52 43.6519 194.354 45.5509 190.669C47.4505 186.984 53.1252 165.967 54.7318 161.809Z" fill="#FFD4AA"/>
<path fill-rule="evenodd" clip-rule="evenodd" d="M36.9477 151.697C37.3342 149.423 37.6945 147.143 38.0587 144.866C38.4113 142.587 38.7785 140.31 39.0762 138.018C39.4017 135.734 39.6947 133.441 39.9313 131.139C40.1641 128.837 40.372 126.528 40.454 124.201C40.5151 126.53 40.4092 128.865 40.2267 131.185C40.0496 133.508 39.7527 135.808 39.4566 138.107C39.1257 140.398 38.7631 142.681 38.3471 144.949C37.9327 147.216 37.4711 149.468 36.9477 151.697Z" fill="#20180F"/>
<path fill-rule="evenodd" clip-rule="evenodd" d="M29.8095 214.728C29.8095 214.728 30.8231 218.768 30.9051 220.823C30.9051 220.823 33.0151 222.772 34.4942 224.862C34.4942 224.862 38.1227 225.852 39.9883 223.533C39.9883 223.533 42.3109 224.822 42.5669 225.072C42.8228 225.323 43.3524 226.457 43.3702 226.693C43.3887 226.929 42.713 228.11 41.3793 227.992C40.0463 227.874 36.5763 227.26 35.4258 226.48C34.2746 225.701 30.5494 221.871 29.91 221.365C29.2706 220.858 28.6312 220.079 28.9784 218.638C29.3255 217.197 29.5814 214.764 29.8095 214.728Z" fill="#422D18"/>
<path fill-rule="evenodd" clip-rule="evenodd" d="M34.9579 206.968C34.9579 206.968 38.5485 211.61 39.3155 215.047C39.3155 215.047 42.5211 215.154 43.6986 214.728C43.6986 214.728 46.0823 214.941 46.329 217.846C46.329 217.846 45.0958 218.059 43.5347 217.846C41.9729 217.634 38.932 217.067 38.4936 216.394C38.0552 215.72 38.0576 213.615 35.152 208.113L34.9579 206.968Z" fill="#422D18"/>
<path fill-rule="evenodd" clip-rule="evenodd" d="M27.9064 102.155C27.9064 102.155 16.0089 116.212 16.9777 130.952C17.9472 145.692 16.9212 145.22 16.9212 145.22C16.9212 145.22 31.4213 146.826 37.5054 146.638C43.5895 146.448 49.2646 147.39 56.837 141.297C56.837 141.297 55.1167 121.85 44.8969 101.551L45.6353 96.9361C45.6353 96.9361 34.0918 83.1621 28.6131 98.0811L27.9064 102.155Z" fill="#235789"/>
<path fill-rule="evenodd" clip-rule="evenodd" d="M27.6912 103.268C28.384 103.573 29.0744 103.866 29.7819 104.084C30.4808 104.334 31.1883 104.539 31.8996 104.708C33.3215 105.039 34.7565 105.252 36.193 105.275C37.6319 105.341 39.063 105.104 40.471 104.747L41.5233 104.428L42.5462 103.975L43.0634 103.757L43.5583 103.467C43.8876 103.27 44.2217 103.081 44.5603 102.895C43.3456 103.934 42.0181 104.837 40.5777 105.307C39.1527 105.81 37.6659 106.075 36.1853 106.024C34.7062 105.982 33.2318 105.743 31.8045 105.27C30.3795 104.798 28.9801 104.171 27.6912 103.268Z" fill="#24273A"/>
<path fill-rule="evenodd" clip-rule="evenodd" d="M33.124 50.2185C33.124 50.2185 34.0261 58.9258 26.0001 63.3982C26.0001 63.3982 25.8584 69 34.8344 69C43.8104 69 44 64.2458 44 64.2458C44 64.2458 39.8688 61.1847 39.3928 60.4321C39.3928 60.4321 39.6782 57.467 40.4386 56.1961C41.1979 54.9252 41.8156 51.5368 38.1115 49.7002C34.4063 47.8646 33.124 50.2185 33.124 50.2185Z" fill="#FFC280"/>
<path fill-rule="evenodd" clip-rule="evenodd" d="M19.021 105.056C19.0593 104.998 19.1369 104.983 19.1944 105.021L22.1944 107.021C22.2518 107.059 22.2673 107.137 22.229 107.194C22.1907 107.252 22.1131 107.267 22.0557 107.229L19.0557 105.229C18.9982 105.191 18.9827 105.113 19.021 105.056Z" fill="#F48399"/>
<path fill-rule="evenodd" clip-rule="evenodd" d="M20.021 104.056C20.0593 103.998 20.1369 103.983 20.1944 104.021L23.1944 106.021C23.2518 106.059 23.2673 106.137 23.229 106.194C23.1907 106.252 23.1131 106.267 23.0557 106.229L20.0557 104.229C19.9982 104.191 19.9827 104.113 20.021 104.056Z" fill="#F48399"/>
<path fill-rule="evenodd" clip-rule="evenodd" d="M21.0557 102.021C21.1131 101.983 21.1907 101.998 21.229 102.056L23.229 105.056C23.2673 105.113 23.2518 105.191 23.1944 105.229C23.1369 105.267 23.0593 105.252 23.021 105.194L21.021 102.194C20.9827 102.137 20.9982 102.059 21.0557 102.021Z" fill="#F48399"/>
<path fill-rule="evenodd" clip-rule="evenodd" d="M18.1919 102.653C18.1919 102.653 19.0469 101.186 20.7579 101.92C22.4699 102.653 23.8139 105.037 26.0749 105.769C28.3369 106.503 28.9469 106.564 29.5589 106.992C30.1699 107.42 32.1978 110.231 33.9639 110.659C33.9639 110.659 33.4699 111.578 30.1089 110.292C30.1089 110.292 30.5369 111.147 30.5369 111.82C30.5369 111.82 29.3199 113.591 26.0779 115.303C26.0779 115.303 22.8369 109.07 22.1029 108.091C21.3699 107.114 16.7249 105.587 18.1919 102.653Z" fill="#FFC280"/>
<path fill-rule="evenodd" clip-rule="evenodd" d="M27.5975 63.2765C32.1795 64.1365 40.5425 64.4155 44.3615 63.8455C44.3615 63.8455 51.9255 67.8635 51.4885 73.3185C51.0525 78.7735 55.9615 80.3005 50.7255 88.9195L45.5737 98.5665C37.7187 100.451 30.2047 101.014 29.1137 98.5665C28.0237 96.1195 24.9785 90.2285 24.9785 90.2285L19.9605 80.6645L12.2145 92.5195C12.2145 92.5195 20.8325 99.3435 21.5965 100.623C22.3605 101.902 18.1055 107.652 15.2695 108.377C15.2695 108.377 1.2455 97.8645 3.1845 92.3015C5.1235 86.7365 15.3785 66.3775 21.2695 63.8385C21.2695 63.8385 23.0155 62.4165 27.5975 63.2765Z" fill="#1E1E1E"/>
<path fill-rule="evenodd" clip-rule="evenodd" d="M31.3004 51.0304C31.3004 51.0304 32.4344 53.2984 34.9144 54.7864C37.3944 56.2744 40.5124 58.5424 42.0714 58.0464C43.6314 57.5504 47.7624 54.3844 48.7544 50.8414C49.7464 47.2984 50.3634 41.3924 49.7254 38.4864C49.0884 35.5814 45.4734 29.4864 39.0254 29.4864C32.5754 29.4864 26.8364 36.2894 28.3944 43.8014C28.3944 43.8014 26.6024 45.9994 28.1364 48.2664C29.6704 50.5344 31.3004 51.0304 31.3004 51.0304Z" fill="#FFC280"/>
<path fill-rule="evenodd" clip-rule="evenodd" d="M35.148 46.2823C35.148 46.2823 37.995 46.3523 38.751 46.9023C38.751 46.9023 39.028 47.0003 38.921 46.6363C38.921 46.6363 39.329 46.9283 39.356 46.7693C39.382 46.6093 39.178 45.0683 37.575 44.8553C35.972 44.6433 34.767 46.1133 35.148 46.2823Z" fill="black"/>
<path fill-rule="evenodd" clip-rule="evenodd" d="M47.6207 45.8741C47.6207 45.8741 45.8147 45.8481 45.0827 46.3961C45.0827 46.3961 44.8147 46.4941 44.9167 46.1311C44.9167 46.1311 44.5227 46.4231 44.4967 46.2641C44.4717 46.1041 45.2057 44.6521 46.7587 44.4391C48.3107 44.2271 48.7187 45.5851 47.6207 45.8741Z" fill="black"/>
<path fill-rule="evenodd" clip-rule="evenodd" d="M42.8901 51.2247C42.8901 51.2247 42.6771 51.4027 42.8901 51.5787C43.1021 51.7567 44.5021 51.2607 44.8211 50.7997C45.1401 50.3387 44.9511 50.2867 44.4961 50.5517C44.0411 50.8177 42.8901 51.2247 42.8901 51.2247Z" fill="black"/>
<path fill-rule="evenodd" clip-rule="evenodd" d="M40.02 52.6602C40.02 52.6602 39.932 52.5012 40.693 52.5012C41.455 52.5012 41.384 52.6422 42.624 52.6602C43.864 52.6782 44.372 52.6602 43.888 52.9782C43.404 53.2982 43.439 53.2802 43.351 53.5282C43.262 53.7762 42.141 54.2192 41.257 53.9182C40.374 53.6162 39.472 52.8172 40.02 52.6602Z" fill="#EE4E2F"/>
<path fill-rule="evenodd" clip-rule="evenodd" d="M34.6992 42.1007C34.8342 42.0587 34.6522 42.3367 35.2662 42.2307C35.8802 42.1247 37.5572 41.9357 39.0692 42.8807C39.0692 42.8807 39.3392 42.6677 39.3582 42.2667C39.3752 41.8907 36.8292 40.6037 34.6632 42.0307C34.5152 42.1277 34.5612 42.1437 34.6992 42.1007Z" fill="black"/>
<path fill-rule="evenodd" clip-rule="evenodd" d="M47.6204 42.2423C47.6204 42.2423 46.7224 41.2743 45.2104 41.7223C43.6994 42.1723 43.8394 42.8563 43.8874 43.0463C43.9354 43.2343 45.0214 42.3123 46.1554 42.3253C47.2894 42.3373 47.6204 42.5733 47.6204 42.2423Z" fill="black"/>
<path fill-rule="evenodd" clip-rule="evenodd" d="M24.0927 64.5304C23.7387 63.1834 24.5537 62.2624 24.5537 62.2624C24.5537 62.2624 24.7987 65.7704 25.6507 66.3734C25.6507 66.3734 24.4467 65.8774 24.0927 64.5304ZM22.8457 58.8474C21.8107 58.1964 21.2587 56.2384 21.2587 56.2384C23.1717 57.0894 24.0927 59.4994 24.0927 59.4994C24.0927 59.4994 23.8807 59.4994 22.8457 58.8474ZM32.7387 44.8354C32.8807 42.6084 33.7307 42.3374 35.0767 41.0144C36.4237 39.6914 37.7667 36.5734 37.7667 36.5734C36.2587 35.4224 31.8707 32.1274 31.8707 32.1274C30.5597 32.3214 28.1327 36.1484 28.1327 36.1484C21.7187 40.5774 22.7817 47.4334 22.7817 47.4334C20.6557 49.1344 20.0717 52.7494 20.0717 52.7494C17.5557 56.0094 20.6377 59.1444 22.0197 59.6584C23.4017 60.1724 24.1637 61.1994 24.1637 61.1994C20.7977 64.9554 23.5787 66.1954 26.0417 67.5244C28.5047 68.8524 29.9687 71.8914 28.4747 73.2384C26.9807 74.5864 25.4177 72.3624 25.2787 72.4104C25.1397 72.4584 25.1877 73.0564 25.1877 73.0564C26.0377 74.2984 27.5357 74.2184 27.5357 74.2184C25.6067 75.1924 24.9367 73.3994 24.8187 73.4424C24.7007 73.4854 24.8187 74.0624 24.8187 74.0624C26.8507 76.1884 28.5337 74.6044 31.0847 71.2514C33.6357 67.8964 30.7067 63.6444 30.7067 63.6444C30.7067 63.6444 31.1327 61.3294 33.9197 59.7224C36.7067 58.1164 36.8957 54.7624 35.2527 52.1644C33.6097 49.5654 32.5967 47.0614 32.7387 44.8354Z" fill="#F3DDB4"/>
<path fill-rule="evenodd" clip-rule="evenodd" d="M56.4785 80.0851C54.8485 81.0071 54.8845 80.4041 55.4515 78.9161C56.0185 77.4281 54.9555 75.6561 54.9555 75.6561C56.0695 75.9811 58.1085 79.1641 56.4785 80.0851ZM54.8255 81.7151C54.5655 81.7151 54.8255 81.2421 54.8255 81.2421C54.8255 81.2421 55.3925 81.2671 55.7935 81.2421C55.7935 81.2421 55.0845 81.7151 54.8255 81.7151ZM52.3325 74.3511C51.6955 73.8251 52.0845 72.5731 52.0845 72.5731C52.0845 72.5731 51.9875 73.6461 53.1245 74.5231C54.2615 75.3981 54.2815 76.7551 54.2815 76.7551C53.9985 75.9751 52.9705 74.8771 52.3325 74.3511ZM51.0925 63.2901C49.8525 62.2271 49.8175 60.4901 49.8175 60.4901C52.7585 66.2311 55.6035 63.0541 55.2975 66.8191C55.1325 68.8441 53.5735 69.4201 53.5735 69.4201C55.6635 66.5151 52.3325 64.3531 51.0925 63.2901ZM58.2145 73.2111C56.4785 71.7941 55.5925 72.8211 53.8775 72.3601C52.1615 71.9001 53.0775 70.8731 53.0775 70.8731C53.0775 70.8731 56.4075 69.5621 56.4365 65.4161C56.4665 61.2711 52.4395 61.8731 52.0145 60.2711C51.5885 58.6691 57.6125 56.4861 56.2305 52.8731C54.8485 49.2591 52.6875 49.0471 52.6875 49.0471C52.4745 48.4451 52.9705 47.9821 55.0615 46.0341C57.1515 44.0851 51.5535 38.3451 51.5535 38.3451C51.5535 38.3451 50.4905 35.2981 49.9855 33.8101C49.4805 32.3211 47.0185 30.7271 47.0185 30.7271C40.9945 25.5891 36.4235 27.8561 36.4235 27.8561C31.8525 28.2261 32.1005 32.1271 32.1005 32.1271C32.8805 32.5691 35.2185 34.0931 36.3885 35.0151C37.5575 35.9361 37.9545 36.3591 37.9545 36.3591C42.3485 31.9461 44.1245 35.9591 45.6125 39.5731C47.1005 43.1881 49.2265 44.4171 49.2265 44.4171C49.2265 44.4171 49.5105 48.7151 48.2395 51.9041C46.9695 55.0931 42.9975 57.6091 41.9605 57.9511C40.9245 58.2931 39.8535 57.6011 39.8535 57.6011C39.1725 59.2571 39.8485 62.4631 41.5965 63.3851C43.3445 64.3061 43.5985 65.7311 43.5985 65.7311C42.7175 72.0221 44.1475 71.6051 46.0375 73.9901C47.9275 76.3771 45.1405 78.6201 44.3365 78.6451C43.5335 78.6681 43.5105 78.9511 43.5105 78.9511C47.0065 79.0931 47.9745 75.8811 47.9745 75.8811C52.4155 79.7311 45.3175 81.7151 46.5215 85.6121C47.7265 89.5111 50.7385 89.8471 50.7385 89.6161C50.7385 89.3871 49.9855 89.1911 49.9855 89.1911C46.0935 87.2071 49.4985 84.0891 51.7665 83.7341C54.0335 83.3811 54.1755 82.1761 54.1755 82.1761C56.1955 82.3171 57.7895 80.0501 57.7895 80.0501C60.6595 78.6331 59.9515 74.6291 58.2145 73.2111Z" fill="#F3DDB4"/>
<path fill-rule="evenodd" clip-rule="evenodd" d="M35.6795 35.3683C34.9805 35.9933 34.3785 36.7023 33.8895 37.4743C33.4095 38.2513 33.0065 39.0753 32.7815 39.9553C32.5545 40.8293 32.4035 41.7343 32.4325 42.6513C32.4195 43.5713 32.5795 44.4833 32.7285 45.4133C32.5655 44.9743 32.4055 44.5293 32.2765 44.0743C32.2005 43.6083 32.0605 43.1473 32.0485 42.6693C31.9265 41.7183 32.0695 40.7493 32.3005 39.8193C32.8185 37.9703 34.0465 36.3083 35.6795 35.3683Z" fill="#6F3C00"/>
<path fill-rule="evenodd" clip-rule="evenodd" d="M33.3059 34.1642C32.5659 35.1662 31.9679 36.2572 31.5389 37.4042C31.1129 38.5512 30.8369 39.7522 30.7959 40.9682C30.7499 42.1772 30.8469 43.4062 31.1929 44.5822C31.4819 45.7772 32.0209 46.8922 32.5619 48.0182C32.2179 47.5012 31.8609 46.9822 31.5579 46.4332C31.3069 45.8582 30.9879 45.3062 30.8249 44.6922C30.3789 43.5032 30.2579 42.2092 30.2969 40.9422C30.3529 39.6702 30.6589 38.4092 31.1849 37.2592C31.7019 36.1052 32.4069 35.0342 33.3059 34.1642Z" fill="#6F3C00"/>
<path fill-rule="evenodd" clip-rule="evenodd" d="M32.2176 32.9942C31.4186 34.0402 30.7726 35.1872 30.3046 36.3952C29.8396 37.6012 29.5436 38.8762 29.5296 40.1622C29.4866 41.4392 29.6326 42.7402 30.0566 43.9652C30.1986 44.6012 30.5206 45.1742 30.7586 45.7812C31.0256 46.3772 31.3826 46.9282 31.6756 47.5222C31.2896 46.9922 30.8866 46.4612 30.5406 45.8952C30.2536 45.2992 29.8856 44.7322 29.6926 44.0892C29.1786 42.8482 29.0226 41.4812 29.0306 40.1432C29.1296 37.4482 30.3236 34.8322 32.2176 32.9942Z" fill="#6F3C00"/>
<path fill-rule="evenodd" clip-rule="evenodd" d="M28.0613 36.7511C27.7063 37.4001 27.3713 38.0541 27.1133 38.7351C26.8383 39.4061 26.6173 40.1011 26.5373 40.7961C26.4603 41.4861 26.5063 42.1871 26.8453 42.7241C27.1703 43.2411 27.7553 43.7671 28.2813 44.2371C29.3593 45.2121 30.5203 46.1231 31.6093 47.1301C32.6563 48.1411 33.8873 49.1591 34.3443 50.6121C34.0083 49.9511 33.4783 49.4421 32.9323 48.9621C32.3963 48.4701 31.8183 48.0191 31.2383 47.5711C30.0733 46.6781 28.9013 45.7851 27.7803 44.7951C27.2303 44.2701 26.6773 43.8141 26.2283 43.0711C25.8203 42.3191 25.8003 41.4521 25.9703 40.7021C26.3073 39.1841 27.1053 37.8791 28.0613 36.7511Z" fill="#6F3C00"/>
<path fill-rule="evenodd" clip-rule="evenodd" d="M26.9966 38.5558C25.9106 40.2398 25.3956 42.2238 25.4486 44.1598C25.5016 45.1248 25.5936 46.1208 26.0476 46.9018C26.4946 47.6878 27.2726 48.2758 28.1056 48.7688C28.9366 49.2728 29.8326 49.6998 30.7336 50.1148C31.6216 50.5198 32.5986 50.9378 33.4226 51.5598C34.2566 52.1698 34.9806 52.9528 35.4566 53.8728C35.9176 54.7918 36.1346 55.8488 35.9626 56.8408C35.9716 54.8088 34.7146 53.0458 33.0936 52.0348C32.2676 51.5208 31.3936 51.1468 30.4456 50.7638C29.5216 50.3618 28.6046 49.9318 27.7176 49.4098C26.8536 48.8788 25.9596 48.2248 25.4266 47.2438C24.9156 46.2488 24.8436 45.1778 24.8706 44.1598C24.9356 42.1048 25.6506 40.0608 26.9966 38.5558Z" fill="#6F3C00"/>
<path fill-rule="evenodd" clip-rule="evenodd" d="M28.6133 49.4698C29.5383 50.8608 30.4003 52.4288 30.3513 54.2288C30.3383 54.6778 30.1663 55.1308 29.9053 55.5128C29.6353 55.8648 29.3323 56.1788 29.0163 56.4688C28.3903 57.0518 27.7223 57.5708 27.1873 58.1758C26.9273 58.4778 26.7013 58.8018 26.6063 59.1518C26.5203 59.5018 26.6213 59.8598 26.8023 60.1908C27.2113 60.8388 27.9243 61.3488 28.5413 61.9078C29.1763 62.4568 29.8503 62.9618 30.4893 63.5308C31.1363 64.0918 31.6253 64.8828 31.7113 65.7308C31.5073 64.8998 31.0093 64.2038 30.3303 63.7158C29.6753 63.1998 28.9723 62.7258 28.3003 62.2078C27.6383 61.6828 26.9373 61.1948 26.4123 60.4248C26.1793 60.0318 26.0283 59.5318 26.1403 59.0428C26.2603 58.5688 26.5293 58.1858 26.8123 57.8468C27.4093 57.1968 28.0943 56.6898 28.7103 56.1328C29.0223 55.8578 29.3103 55.5668 29.5603 55.2528C29.7693 54.9398 29.9343 54.5908 29.9703 54.1908C30.0733 53.3998 29.8673 52.5668 29.6153 51.7798C29.3603 50.9838 29.0073 50.2168 28.6133 49.4698Z" fill="#6F3C00"/>
<path fill-rule="evenodd" clip-rule="evenodd" d="M22.7818 47.4337C22.9838 48.4017 23.4868 49.2677 24.1598 49.9327C24.8428 50.5697 25.7218 51.0807 26.4778 51.7337C27.2358 52.3757 27.9858 53.1137 28.3938 54.0797C28.6088 54.5517 28.6768 55.0927 28.6268 55.6007C28.5758 56.1187 28.3348 56.5807 28.0718 56.9947C28.4718 56.0847 28.5058 55.0657 28.0448 54.2407C27.6038 53.4127 26.9018 52.7327 26.1568 52.1167C25.4288 51.4677 24.5818 50.9727 23.8808 50.1947C23.2128 49.4217 22.7778 48.4327 22.7818 47.4337Z" fill="#6F3C00"/>
<path fill-rule="evenodd" clip-rule="evenodd" d="M23.8472 49.8691C24.4262 50.6711 24.9442 51.5161 25.3922 52.4061C25.6162 52.8481 25.7812 53.3451 25.9212 53.8071C26.0742 54.2741 26.2302 54.7471 26.3632 55.2271C26.6392 56.1861 26.7892 57.1991 26.7262 58.2231C26.6852 58.7331 26.5802 59.2431 26.3982 59.7301C26.1782 60.2351 26.0062 60.5991 25.9562 61.0681C25.8402 61.9731 26.1682 62.9161 26.6882 63.7011C27.2042 64.4971 27.9312 65.1621 28.7542 65.6201C28.9592 65.7131 29.1832 65.8211 29.4302 65.9551C29.6502 66.1031 29.8532 66.2741 30.0212 66.4721C30.3592 66.8641 30.6042 67.3141 30.8012 67.7751C31.1672 68.7101 31.3832 69.6871 31.4662 70.6731C31.2722 69.7061 31.0072 68.7491 30.5772 67.8761C30.1502 66.9931 29.5662 66.2331 28.5842 65.9651C27.6522 65.5171 26.8872 64.7961 26.3092 63.9531C25.7392 63.1151 25.3412 62.0811 25.4602 61.0101C25.5122 60.4891 25.7752 59.9501 25.9542 59.5571C26.1242 59.1211 26.2282 58.6581 26.2742 58.1851C26.3532 57.2361 26.2042 56.2711 25.9922 55.3211C25.8842 54.8461 25.7522 54.3731 25.6202 53.8961C25.4962 53.4071 25.3672 52.9601 25.1702 52.5061C24.8042 51.5981 24.3302 50.7301 23.8472 49.8691Z" fill="#6F3C00"/>
<path fill-rule="evenodd" clip-rule="evenodd" d="M28.04 65.4161C28.568 66.0371 28.973 66.7531 29.308 67.5001C29.641 68.2491 29.879 69.0501 29.974 69.8781C30.054 70.7061 29.993 71.5621 29.715 72.3541C29.436 73.1511 28.912 73.8261 28.298 74.3511C28.761 73.6821 29.163 73.0011 29.348 72.2411C29.519 71.4841 29.561 70.7081 29.477 69.9331C29.4 69.1561 29.189 68.3941 28.951 67.6391C28.699 66.8861 28.393 66.1451 28.04 65.4161Z" fill="#6F3C00"/>
<path fill-rule="evenodd" clip-rule="evenodd" d="M20.4282 51.3224C20.9982 52.6744 21.7372 53.9634 22.7402 54.9504C23.0032 55.1934 23.2602 55.3864 23.5612 55.6124C23.8722 55.8374 24.1652 56.0924 24.4362 56.3734C24.9782 56.9324 25.3972 57.6554 25.5712 58.4574C25.7142 59.2654 25.5772 60.1184 25.2172 60.8224C24.8812 61.5274 24.2912 62.1354 23.8892 62.6354C23.4942 63.1824 23.2782 63.8584 23.4172 64.5334C23.5172 65.2184 23.9392 65.8474 24.4472 66.3734C23.8292 65.9724 23.3062 65.3724 23.0602 64.6214C22.8152 63.8624 23.0032 62.9964 23.4042 62.3234C23.8482 61.6294 24.3062 61.1704 24.5742 60.5204C24.8642 59.9074 24.9532 59.2374 24.8352 58.5994C24.7082 57.9634 24.3752 57.3594 23.9132 56.8504C23.6882 56.5924 23.4362 56.3504 23.1612 56.1324C22.8812 55.9084 22.5732 55.6324 22.3252 55.3474C21.3212 54.1804 20.7082 52.7724 20.4282 51.3224Z" fill="#6F3C00"/>
<path fill-rule="evenodd" clip-rule="evenodd" d="M30.1699 53.5771C30.8409 53.7911 31.4179 54.2601 31.8639 54.8181C32.3189 55.3791 32.6049 56.0621 32.7709 56.7591C32.9419 57.4601 32.9309 58.1811 32.8669 58.8831C32.8129 59.2311 32.7459 59.5771 32.6779 59.9191C32.5659 60.2531 32.4699 60.5881 32.3439 60.9121C32.4009 60.2141 32.4759 59.5371 32.4829 58.8591C32.4549 58.1851 32.4529 57.5111 32.2829 56.8691C32.0019 55.5821 31.3129 54.3781 30.1699 53.5771Z" fill="#6F3C00"/>
<path fill-rule="evenodd" clip-rule="evenodd" d="M29.6851 51.6163C31.2981 52.0383 32.6211 53.3303 33.3781 54.8343C33.7271 55.6033 33.9931 56.4183 34.0611 57.2543C34.1311 57.6673 34.0911 58.0893 34.0981 58.4993C34.0521 58.9123 34.0021 59.3223 33.9191 59.7223C33.7921 58.9073 33.6781 58.1193 33.4851 57.3553C33.3071 56.5893 33.0321 55.8613 32.7051 55.1643C32.3721 54.4693 31.9351 53.8293 31.4351 53.2313C30.9271 52.6423 30.3581 52.0843 29.6851 51.6163Z" fill="#6F3C00"/>
<path fill-rule="evenodd" clip-rule="evenodd" d="M36.3884 35.0147C36.1234 34.2747 36.0894 33.4607 36.1964 32.6737C36.2964 31.8807 36.5784 31.1157 36.9684 30.4157C37.3914 29.7367 37.8954 29.1067 38.5104 28.6046C38.8044 28.3396 39.1454 28.1336 39.4584 27.9016C39.8034 27.7106 40.1474 27.5246 40.4984 27.3586C39.8964 27.8586 39.2954 28.3316 38.7734 28.8846C38.2454 29.4297 37.7874 30.0277 37.4004 30.6657C36.6634 31.9617 36.2694 33.4607 36.3884 35.0147Z" fill="#6F3C00"/>
<path fill-rule="evenodd" clip-rule="evenodd" d="M38.219 36.1026C37.796 34.8566 37.633 33.4646 38.028 32.1376C38.398 30.7786 39.735 29.7986 41.084 29.5646C41.427 29.5186 41.761 29.4466 42.114 29.4236C42.473 29.4066 42.835 29.4496 43.187 29.5356C43.892 29.7156 44.519 30.1156 45.029 30.5936C46.047 31.5726 46.695 32.7986 47.237 34.0266C48.252 36.5226 48.837 39.1256 49.417 41.6976C49.561 42.3396 49.707 42.9826 49.886 43.6066C50.06 44.2366 50.279 44.8376 50.728 45.2426C51.145 45.6846 51.846 45.6806 52.42 45.4066C53.008 45.1486 53.53 44.7246 53.998 44.2626C53.589 44.7796 53.11 45.2626 52.507 45.5846C51.948 45.9296 51.067 46.0336 50.493 45.5256C49.917 45.0636 49.644 44.3726 49.435 43.7506C49.216 43.1156 49.036 42.4756 48.858 41.8366C48.161 39.2876 47.581 36.7056 46.548 34.3196C46.05 33.1306 45.444 31.9636 44.559 31.0866C44.115 30.6576 43.595 30.3196 43.019 30.1606C42.447 29.9826 41.828 30.0606 41.192 30.1276C39.952 30.2906 38.794 31.0476 38.372 32.2606C37.892 33.4436 37.956 34.8206 38.219 36.1026Z" fill="#6F3C00"/>
<path fill-rule="evenodd" clip-rule="evenodd" d="M46.7202 33.7745C47.7252 34.4015 48.4242 35.4455 48.8722 36.5445C49.3572 37.6525 49.4222 38.8795 49.5882 40.0065C49.7572 41.1455 49.9542 42.2985 50.4452 43.3035C50.6922 43.7995 51.0652 44.2385 51.5752 44.4455C52.0812 44.6745 52.6802 44.6425 53.2542 44.5435C52.7102 44.7505 52.0922 44.8495 51.4912 44.6745C50.8902 44.4915 50.4202 44.0115 50.1102 43.4925C49.4892 42.4305 49.2792 41.2355 49.0942 40.0785C48.9332 38.9005 48.8892 37.7585 48.5132 36.6755C48.1552 35.6005 47.5892 34.5595 46.7202 33.7745Z" fill="#6F3C00"/>
<path fill-rule="evenodd" clip-rule="evenodd" d="M39.0765 35.3683C38.9805 34.6823 39.0555 33.9793 39.2415 33.3003C39.4265 32.6203 39.7835 31.9663 40.3125 31.4593C40.8425 30.9603 41.5435 30.6193 42.2595 30.5733C42.6125 30.5023 42.9685 30.5713 43.3155 30.5733C43.6595 30.6373 43.9965 30.7213 44.3255 30.8153C43.6345 30.8143 42.9605 30.7873 42.3255 30.9523C41.6865 31.0793 41.1085 31.3863 40.6555 31.8213C40.1915 32.2513 39.8595 32.8183 39.6035 33.4243C39.3565 34.0353 39.1865 34.6913 39.0765 35.3683Z" fill="#6F3C00"/>
<path fill-rule="evenodd" clip-rule="evenodd" d="M45.1289 31.1865C45.3419 30.9415 45.6719 30.8005 46.0029 30.7675C46.3359 30.7305 46.6719 30.7895 46.9839 30.8885C47.2959 30.9995 47.5869 31.1485 47.8569 31.3295C48.1249 31.5105 48.3649 31.7275 48.5879 31.9575L47.7579 31.4945C47.4789 31.3535 47.2009 31.2105 46.9059 31.1255C46.6199 31.0135 46.3159 30.9645 46.0139 30.9585C45.7139 30.9585 45.3999 31.0145 45.1289 31.1865Z" fill="#6F3C00"/>
<path fill-rule="evenodd" clip-rule="evenodd" d="M41.144 34.4347C41.259 33.4887 41.838 32.5647 42.721 32.0947C43.165 31.8817 43.65 31.7447 44.139 31.7437C44.382 31.7287 44.623 31.7737 44.862 31.7877L45.561 31.9577C45.084 31.9157 44.613 31.8857 44.151 31.9357C43.687 31.9747 43.24 32.1037 42.838 32.3157C42.425 32.5127 42.084 32.8347 41.8 33.1977C41.52 33.5637 41.295 33.9837 41.144 34.4347Z" fill="#6F3C00"/>
<path fill-rule="evenodd" clip-rule="evenodd" d="M41.4512 34.4249C41.9292 33.6119 42.7022 32.9479 43.6262 32.6369C44.0902 32.4899 44.5942 32.4569 45.0682 32.5549C45.5512 32.6289 45.9772 32.8729 46.3682 33.1299C45.9312 32.9529 45.4962 32.7799 45.0392 32.7449C44.5892 32.6919 44.1282 32.7209 43.7012 32.8749C43.2662 33.0019 42.8642 33.2289 42.4892 33.4939C42.1182 33.7649 41.7632 34.0709 41.4512 34.4249Z" fill="#6F3C00"/>
<path fill-rule="evenodd" clip-rule="evenodd" d="M42.436 34.6808C42.731 34.2448 43.143 33.8688 43.651 33.6618C44.155 33.4448 44.747 33.4478 45.265 33.6268C45.79 33.8088 46.214 34.1668 46.594 34.5378C46.763 34.7448 46.946 34.9398 47.1 35.1548L47.52 35.8268C47.177 35.4238 46.836 35.0308 46.459 34.6748C46.067 34.3468 45.666 34.0078 45.182 33.8628C44.715 33.6818 44.196 33.6798 43.718 33.8408C43.24 33.9998 42.801 34.3038 42.436 34.6808Z" fill="#6F3C00"/>
<path fill-rule="evenodd" clip-rule="evenodd" d="M49.3286 37.2218C50.2026 37.5398 51.0096 38.0248 51.7606 38.5808C52.5136 39.1388 53.1826 39.8128 53.7556 40.5638C54.3306 41.3148 54.7506 42.1858 55.0116 43.0908C55.2996 43.9958 55.3046 44.9598 55.2076 45.8738C55.0956 44.9538 54.9956 44.0478 54.6456 43.2098C54.3136 42.3778 53.9116 41.5698 53.3546 40.8618C52.2766 39.4208 50.8766 38.2298 49.3286 37.2218Z" fill="#6F3C00"/>
<path fill-rule="evenodd" clip-rule="evenodd" d="M49.8945 39.5851C50.5305 39.9471 51.0985 40.4141 51.6335 40.9141C52.1685 41.4151 52.6485 41.9781 53.0705 42.5851C53.4775 43.2011 53.8315 43.8601 54.0605 44.5681C54.2765 45.2801 54.3775 46.0281 54.2895 46.7561C54.1695 46.0331 53.9775 45.3541 53.7005 44.7041C53.4005 44.0641 53.0565 43.4511 52.6575 42.8661C51.8565 41.6961 50.9045 40.6331 49.8945 39.5851Z" fill="#6F3C00"/>
<path fill-rule="evenodd" clip-rule="evenodd" d="M49.2534 45.4131C49.7074 46.1341 50.1964 46.7671 50.7464 47.3601C51.2924 47.9571 51.9034 48.4771 52.5454 49.0471C51.7164 48.8231 50.9734 48.3261 50.3794 47.6991C50.0894 47.3791 49.8304 47.0271 49.6384 46.6401C49.4444 46.2551 49.2864 45.8451 49.2534 45.4131Z" fill="#6F3C00"/>
<path fill-rule="evenodd" clip-rule="evenodd" d="M49.1768 47.4337C49.4798 48.3177 50.0358 49.0707 50.6848 49.6957C51.3378 50.3227 52.1158 50.7877 52.9138 51.2757C53.6868 51.7687 54.5548 52.2767 55.0928 53.1247C55.6248 53.9637 55.7738 54.9377 55.7788 55.8677C55.5708 54.9597 55.3188 54.0497 54.7778 53.3457C54.2368 52.6457 53.4408 52.1897 52.6508 51.7007C51.8698 51.2087 51.0388 50.6957 50.4088 49.9597C49.7798 49.2457 49.2798 48.3747 49.1768 47.4337Z" fill="#6F3C00"/>
<path fill-rule="evenodd" clip-rule="evenodd" d="M48.9868 49.047C49.4138 49.811 50.0158 50.417 50.6258 50.99C51.2418 51.553 51.9458 52.04 52.6188 52.61C53.2788 53.182 53.9488 53.801 54.4088 54.61C54.9108 55.395 54.9798 56.466 54.5668 57.244C54.6828 56.36 54.4188 55.565 53.9178 54.928C53.4248 54.283 52.7878 53.73 52.1348 53.182C51.4968 52.621 50.7868 52.092 50.2068 51.396C49.6298 50.72 49.1428 49.921 48.9868 49.047Z" fill="#6F3C00"/>
<path fill-rule="evenodd" clip-rule="evenodd" d="M47.8403 52.7354C48.5163 52.9084 49.1273 53.2824 49.6743 53.7174C50.2283 54.1533 50.6933 54.6924 51.0993 55.2654C51.4793 55.8564 51.8133 56.4783 52.0333 57.1423C52.1553 57.4693 52.2283 57.8124 52.3243 58.1444C52.3843 58.4874 52.4423 58.8294 52.4773 59.1724C52.2113 58.5314 51.9773 57.8954 51.6773 57.2904C51.3833 56.6834 51.0553 56.1014 50.6853 55.5474C49.9293 54.4524 49.0103 53.4644 47.8403 52.7354Z" fill="#6F3C00"/>
<path fill-rule="evenodd" clip-rule="evenodd" d="M47.1953 53.8291C47.8883 53.8171 48.5513 54.1831 49.0643 54.6541C49.5923 55.1261 49.9573 55.7451 50.2383 56.3771C50.5013 57.0231 50.7023 57.6361 50.9473 58.2611C51.0623 58.5731 51.1933 58.8791 51.3353 59.1781C51.4713 59.4791 51.6123 59.7861 51.8423 60.0301C51.2543 59.6521 50.9293 59.0041 50.5973 58.4211C50.2683 57.8301 50.0323 57.1671 49.7793 56.5741C49.5263 55.9761 49.2073 55.4091 48.7893 54.9211C48.3713 54.4401 47.8443 54.0231 47.1953 53.8291Z" fill="#6F3C00"/>
<path fill-rule="evenodd" clip-rule="evenodd" d="M46.6636 54.5732C47.6426 55.5422 48.4886 56.6462 49.1736 57.8562C49.5256 58.4572 49.8166 59.0942 50.0766 59.7512C50.3176 60.4622 50.4746 60.9892 50.8376 61.4932C51.5016 62.5152 52.6606 63.1062 53.8996 63.6452C54.2116 63.7972 54.5356 63.9112 54.8786 64.1902C55.1456 64.4452 55.3856 64.7042 55.5956 64.9982C55.9846 65.5912 56.3076 66.2782 56.2506 66.9792C56.0826 66.3132 55.6976 65.7562 55.2256 65.3102C54.9936 65.0862 54.7356 64.8772 54.4776 64.7002C54.2656 64.5822 53.9366 64.4692 53.6196 64.3692C52.9696 64.1692 52.2996 63.9162 51.6606 63.5582C51.0296 63.1902 50.4466 62.6822 50.0126 62.0572C49.5816 61.4442 49.3506 60.6422 49.1836 60.0602C48.9926 59.4322 48.7346 58.8212 48.4776 58.2052C47.9346 56.9852 47.3316 55.7722 46.6636 54.5732Z" fill="#6F3C00"/>
<path fill-rule="evenodd" clip-rule="evenodd" d="M46.6639 55.2823C46.0999 56.6983 45.6199 58.1433 45.2949 59.6143C45.0069 61.0693 44.7889 62.6303 45.2879 63.9863C45.4899 64.6923 46.0079 65.1903 46.5949 65.6013L48.5489 66.7743C49.1919 67.1813 49.8749 67.5413 50.4469 68.1003C50.7239 68.3863 50.9269 68.7633 50.9719 69.1563C51.0239 69.5473 50.9689 69.9313 50.8999 70.3053C50.9159 69.9253 50.9229 69.5413 50.8419 69.1803C50.7609 68.8183 50.5519 68.5113 50.2759 68.2763C49.7229 67.7993 49.0229 67.4723 48.3589 67.1093C47.6819 66.7613 47.0199 66.3763 46.3599 65.9903C45.6989 65.5623 45.0559 64.9483 44.8189 64.1593C44.5629 63.3953 44.4829 62.5913 44.5449 61.8143C44.5799 61.0333 44.7269 60.2693 44.9229 59.5243C45.3339 58.0403 45.9129 56.6123 46.6639 55.2823Z" fill="#6F3C00"/>
<path fill-rule="evenodd" clip-rule="evenodd" d="M45.4779 58.253C45.5439 59.399 45.7249 60.527 46.0799 61.563C46.2719 62.072 46.4979 62.565 46.8309 62.963C47.1439 63.386 47.5529 63.633 48.0629 63.964C49.0049 64.625 49.9539 65.318 50.7119 66.252C51.0839 66.716 51.4089 67.261 51.5109 67.872C51.6039 68.482 51.4849 69.097 51.1989 69.597C51.3289 69.035 51.3499 68.464 51.1579 67.962C50.9909 67.456 50.6489 67.027 50.2749 66.636C49.5019 65.863 48.5729 65.218 47.6409 64.583C47.1999 64.289 46.6189 63.918 46.2639 63.394C45.8999 62.883 45.6589 62.313 45.5189 61.732C45.2289 60.572 45.2529 59.383 45.4779 58.253Z" fill="#6F3C00"/>
<path fill-rule="evenodd" clip-rule="evenodd" d="M49.8176 60.9122C49.8596 61.9682 50.2366 62.9822 50.7826 63.8602C51.0466 64.3072 51.3926 64.6892 51.6916 65.1532C51.9836 65.6102 52.2076 66.1292 52.2876 66.6842C52.4636 67.8182 51.9886 68.8952 51.4826 69.8202C50.9626 70.7652 50.3146 71.6102 49.7646 72.4912C49.1886 73.3482 48.7556 74.3102 49.2456 75.2212C49.6416 76.1332 50.4606 76.8692 50.9826 77.8212C51.5336 78.7412 51.9306 79.7812 52.0006 80.8632C52.0596 81.9492 51.7126 83.0162 51.1346 83.8942C51.6436 82.9712 51.8936 81.9092 51.7566 80.8832C51.6396 79.8572 51.2246 78.8862 50.6556 78.0242C50.1166 77.1492 49.3166 76.4332 48.8306 75.4082C48.5816 74.9102 48.4806 74.2812 48.6376 73.7182C48.7796 73.1552 49.0616 72.6782 49.3426 72.2242C49.9236 71.3232 50.5756 70.4972 51.0866 69.5982C51.5986 68.7082 52.0086 67.7262 51.9076 66.7312C51.8586 66.2382 51.6786 65.7582 51.4216 65.3162C51.1716 64.8802 50.8206 64.4592 50.5716 63.9812C50.0786 63.0312 49.7776 61.9702 49.8176 60.9122Z" fill="#6F3C00"/>
<path fill-rule="evenodd" clip-rule="evenodd" d="M51.9673 66.1046C52.5163 66.7026 52.8113 67.5416 52.7703 68.3806C52.7203 69.2326 52.2863 69.9976 51.8553 70.6756C51.4303 71.3676 50.9353 72.0096 50.6453 72.7236C50.3293 73.4236 50.3143 74.2086 50.7493 74.8096C51.5953 75.9956 53.3373 76.8076 53.8483 78.5206C54.2753 80.2196 53.6393 81.8226 53.1243 83.3296C53.3003 82.5386 53.4963 81.7536 53.5943 80.9586C53.7083 80.1706 53.7293 79.3586 53.4823 78.6366C53.2293 77.9186 52.7063 77.3306 52.1133 76.7996C51.5413 76.2486 50.8493 75.8176 50.3293 75.0806C49.8023 74.3416 49.8553 73.2906 50.2273 72.5456C50.5713 71.7676 51.0693 71.1136 51.5373 70.4616C52.0033 69.8126 52.4323 69.1386 52.5283 68.3586C52.6433 67.5866 52.4253 66.7686 51.9673 66.1046Z" fill="#6F3C00"/>
<path fill-rule="evenodd" clip-rule="evenodd" d="M48.7944 80.248C48.9894 81.127 49.0344 82.006 49.0444 82.885C49.0354 83.765 48.9904 84.644 48.7944 85.522C48.5984 84.643 48.5534 83.764 48.5444 82.885C48.5544 82.006 48.6004 81.127 48.7944 80.248Z" fill="#6F3C00"/>
<path fill-rule="evenodd" clip-rule="evenodd" d="M47.0037 82.7491C47.1827 83.3661 47.3287 83.9321 47.5277 84.4891C47.6167 84.7701 47.7267 85.0431 47.8337 85.3221C47.9377 85.6041 48.0757 85.8721 48.1877 86.1801C47.6427 85.8281 47.2627 85.2591 47.0547 84.6501C46.8557 84.0391 46.7917 83.3661 47.0037 82.7491Z" fill="#6F3C00"/>
<path fill-rule="evenodd" clip-rule="evenodd" d="M51.7661 71.2267C52.0981 71.7647 52.4511 72.2747 52.8351 72.7537C53.2241 73.2387 53.6271 73.6677 54.0781 74.1177C54.5001 74.5737 54.9681 75.0657 55.1851 75.7187C55.3991 76.3677 55.3521 77.0187 55.2511 77.6407C55.1471 77.0177 55.0851 76.3857 54.8291 75.8617C54.5711 75.3437 54.1481 74.9107 53.7171 74.4617C53.2891 74.0197 52.8421 73.5237 52.5221 72.9737C52.1891 72.4287 51.9091 71.8477 51.7661 71.2267Z" fill="#6F3C00"/>
<path fill-rule="evenodd" clip-rule="evenodd" d="M53.5093 73.4239C54.2933 73.2399 55.1253 73.2639 55.9273 73.4649C56.7303 73.6619 57.4993 74.1329 58.0083 74.8219C58.5093 75.5169 58.7573 76.3479 58.8113 77.1659C58.8263 77.5739 58.7973 77.9829 58.7773 78.3849C58.6943 78.7819 58.6273 79.1788 58.5293 79.5668C58.5153 79.1618 58.5323 78.7668 58.5323 78.3728C58.5013 77.9818 58.4883 77.5889 58.4283 77.2079C58.2903 76.4499 58.0513 75.7209 57.6093 75.1239C57.1763 74.5189 56.5273 74.0978 55.8123 73.8298C55.0923 73.5708 54.3073 73.4449 53.5093 73.4239Z" fill="#6F3C00"/>
<path fill-rule="evenodd" clip-rule="evenodd" d="M54.9551 75.2667C55.9081 75.1887 56.8211 75.7487 57.4341 76.4567C57.7451 76.8197 57.9801 77.2347 58.1851 77.6577L58.4361 78.3147L58.6061 78.9957C58.2401 78.1397 57.8431 77.3027 57.2441 76.6207C56.9571 76.2717 56.6151 75.9717 56.2311 75.7347C55.8461 75.5037 55.4181 75.3187 54.9551 75.2667Z" fill="#6F3C00"/>
<path fill-rule="evenodd" clip-rule="evenodd" d="M44.069 56.9942C43.675 57.8712 43.344 58.7702 43.154 59.6972C42.945 60.6152 42.85 61.5602 42.972 62.4682C43.093 63.3732 43.425 64.2362 44.012 64.9092C44.567 65.5612 45.398 66.1432 46.082 66.8582C47.437 68.2692 48.503 70.1482 48.529 72.1792C48.553 73.1792 48.365 74.1652 48.041 75.0872C47.678 75.9972 47.216 76.8522 46.664 77.6402C47.496 75.9212 48.137 74.0602 47.953 72.2122C47.796 70.3692 46.83 68.7092 45.541 67.3772C44.912 66.6912 44.136 66.1712 43.459 65.3512C42.818 64.5472 42.445 63.5292 42.401 62.5242C42.294 60.5032 43.022 58.5982 44.069 56.9942Z" fill="#6F3C00"/>
<path fill-rule="evenodd" clip-rule="evenodd" d="M43.6519 66.9796C43.9469 67.8486 44.3699 68.6556 44.8809 69.3896C45.4159 70.1016 45.9809 70.8756 46.3799 71.7196C46.7809 72.5646 47.0609 73.4966 47.0649 74.4476C47.0749 75.3976 46.8199 76.3296 46.3679 77.1296C46.6299 76.2496 46.7689 75.3496 46.6819 74.4666C46.5899 73.5866 46.3219 72.7366 45.9289 71.9356C45.5539 71.1176 45.0429 70.3986 44.5549 69.5976C44.0899 68.7876 43.7439 67.9016 43.6519 66.9796Z" fill="#6F3C00"/>
<path d="M41 43H36C35.4477 43 35 43.4477 35 44V47C35 47.5523 35.4477 48 36 48H41C41.5523 48 42 47.5523 42 47V44C42 43.4477 41.5523 43 41 43Z" fill="#1E2214"/>
<path d="M49 43H45C44.4477 43 44 43.4477 44 44V47C44 47.5523 44.4477 48 45 48H49C49.5523 48 50 47.5523 50 47V44C50 43.4477 49.5523 43 49 43Z" fill="#1E2214"/>
<path fill-rule="evenodd" clip-rule="evenodd" d="M36.0981 42.625H41.0981C41.8575 42.625 42.4731 43.2406 42.4731 44V47C42.4731 47.7594 41.8575 48.375 41.0981 48.375H36.0981C35.3388 48.375 34.7231 47.7594 34.7231 47V44C34.7231 43.2406 35.3388 42.625 36.0981 42.625ZM41.0981 43.375H36.0981C35.753 43.375 35.4731 43.6548 35.4731 44V47C35.4731 47.3452 35.753 47.625 36.0981 47.625H41.0981C41.4433 47.625 41.7231 47.3452 41.7231 47V44C41.7231 43.6548 41.4433 43.375 41.0981 43.375Z" fill="#FFFFF1"/>
<path fill-rule="evenodd" clip-rule="evenodd" d="M45.0981 42.625H49.0981C49.8575 42.625 50.4731 43.2406 50.4731 44V47C50.4731 47.7594 49.8575 48.375 49.0981 48.375H45.0981C44.3388 48.375 43.7231 47.7594 43.7231 47V44C43.7231 43.2406 44.3388 42.625 45.0981 42.625ZM49.0981 43.375H45.0981C44.753 43.375 44.4731 43.6548 44.4731 44V47C44.4731 47.3452 44.753 47.625 45.0981 47.625H49.0981C49.4433 47.625 49.7231 47.3452 49.7231 47V44C49.7231 43.6548 49.4433 43.375 49.0981 43.375Z" fill="#FFFFF1"/>
<path fill-rule="evenodd" clip-rule="evenodd" d="M42.0823 44.9888C42.0823 44.9888 43.4889 44.4275 44.0823 44.9888L44.2704 43.0113H41.9019L42.0823 44.9888Z" fill="#FFFFF1"/>
<path fill-rule="evenodd" clip-rule="evenodd" d="M35.3993 46.0903L31 45.2817V43.7135L35.3993 43.1693V46.0903Z" fill="#FFFFF1"/>
<g clip-path="url(#clip1_1_2)">
<path d="M96.194 72.3705L108.062 60.5022C108.743 59.8211 109.623 59.4108 110.57 59.3241C110.656 58.409 111.047 57.5173 111.746 56.8181C112.201 56.3637 112.737 56.0395 113.307 55.8445C113.246 55.6555 113.193 55.4634 113.15 55.2684C112.959 55.3554 112.751 55.4031 112.538 55.4031C112.146 55.4031 111.77 55.2474 111.492 54.9701L108.402 51.8793C107.825 51.3022 107.825 50.3664 108.402 49.7892L115.035 43.1558C115.312 42.8786 115.688 42.7228 116.08 42.7228C116.472 42.7228 116.848 42.8785 117.125 43.1558L120.216 46.2466C120.665 46.695 120.763 47.3592 120.515 47.9043C121.649 48.1551 122.691 48.7218 123.533 49.5632L124.776 50.806C125.617 51.6474 126.184 52.6897 126.435 53.8243C126.98 53.5759 127.644 53.6744 128.092 54.1227L131.183 57.2134C131.46 57.4906 131.616 57.8665 131.616 58.2584C131.616 58.6504 131.46 59.0264 131.183 59.3035L124.55 65.9369C124.261 66.2256 123.883 66.3698 123.505 66.3698C123.126 66.3698 122.748 66.2255 122.46 65.9369L119.369 62.8462C119.092 62.569 118.936 62.1931 118.936 61.8012C118.936 61.5875 118.984 61.3793 119.071 61.1886C118.876 61.1454 118.683 61.093 118.494 61.0313C118.299 61.6019 117.975 62.1377 117.521 62.5922C116.821 63.2919 115.929 63.6837 115.013 63.7685C114.928 64.6842 114.536 65.5767 113.837 66.2764L101.968 78.1447C101.172 78.9408 100.127 79.3387 99.0812 79.3387C98.0356 79.3387 96.99 78.9408 96.194 78.1447C94.602 76.5528 94.602 73.9625 96.194 72.3705ZM116.08 46.291L111.537 50.8342L112.538 51.8348L117.081 47.2916L116.08 46.291ZM122.685 52.8962L121.443 51.6534C120.836 51.0467 120.029 50.7124 119.171 50.7124C118.313 50.7124 117.506 51.0467 116.899 51.6534C116.292 52.2602 115.958 53.067 115.958 53.9251C115.958 54.7832 116.293 55.5899 116.899 56.1967L118.142 57.4395C118.749 58.0463 119.556 58.3805 120.414 58.3805C121.272 58.3805 122.079 58.0463 122.685 57.4395C123.292 56.8328 123.626 56.026 123.626 55.1679C123.626 54.3097 123.292 53.5031 122.685 52.8962ZM123.505 62.8019L128.048 58.2586L127.047 57.2581L122.504 61.8014L123.505 62.8019ZM115.431 58.9083C114.991 58.4688 114.276 58.4688 113.837 58.9083C113.397 59.3477 113.397 60.0628 113.837 60.5022C114.276 60.9417 114.991 60.9417 115.431 60.5022C115.87 60.0628 115.87 59.3477 115.431 58.9083ZM98.2842 76.0547C98.7236 76.4941 99.4388 76.4941 99.8781 76.0547L111.746 64.1863C112.186 63.7469 112.186 63.0317 111.746 62.5923C111.534 62.3794 111.251 62.2621 110.95 62.2621C110.648 62.2621 110.365 62.3793 110.153 62.5923L98.2842 74.4606C97.8447 74.9001 97.8447 75.6153 98.2842 76.0547Z" fill="#929292"/>
<path d="M113.767 76.7653H114.759V74.4165C114.759 73.8724 115.2 73.4312 115.744 73.4312H134.545C135.089 73.4312 135.53 73.8724 135.53 74.4165V76.7653H136.522C137.338 76.7653 138 77.4271 138 78.2433V83.8432C138 84.6595 137.338 85.3212 136.522 85.3212H113.767C112.951 85.3212 112.289 84.6595 112.289 83.8432V78.2433C112.289 77.427 112.951 76.7653 113.767 76.7653ZM133.56 75.4019H116.729V76.7653H133.56V75.4019ZM115.245 82.3652H135.044V79.7213H115.245V82.3652Z" fill="#929292"/>
</g>
</g>
<defs>
<clipPath id="clip0_1_2">
<rect width="176" height="228" fill="white"/>
</clipPath>
<clipPath id="clip1_1_2">
<rect width="43" height="43" fill="white" transform="matrix(-1 0 0 1 138 42.522)"/>
</clipPath>
</defs>
</svg>
